<?xml version="1.0" standalone="no"?>
<!DOCTYPE svg PUBLIC "-//W3C//DTD SVG 20010904//EN"
 "http://www.w3.org/TR/2001/REC-SVG-20010904/DTD/svg10.dtd">
<svg version="1.0" xmlns="http://www.w3.org/2000/svg"
 width="282.000000pt" height="118.000000pt" viewBox="0 0 282.000000 118.000000"
 preserveAspectRatio="xMidYMid meet">

<g transform="translate(0.000000,118.000000) scale(0.100000,-0.100000)"
fill="#000000" stroke="none">
<path d="M1601 924 c-29 -8 -66 -23 -81 -34 -44 -31 -84 -122 -88 -201 -8
-144 61 -239 184 -255 44 -5 62 -2 106 19 53 24 55 24 77 6 46 -38 51 -29 51
96 0 96 3 115 15 115 8 0 15 5 15 10 0 6 -37 10 -90 10 -53 0 -90 -4 -90 -10
0 -5 7 -10 15 -10 12 0 15 -16 15 -85 0 -92 0 -92 -59 -75 -45 13 -87 54 -102
99 -35 104 9 262 83 302 15 8 25 -2 64 -61 l45 -70 28 19 c65 46 65 67 -1 104
-56 32 -119 40 -187 21z"/>
<path d="M80 920 c0 -6 7 -13 15 -16 13 -5 15 -40 15 -225 0 -188 -2 -219 -15
-219 -8 0 -15 -4 -15 -10 0 -6 37 -10 90 -10 53 0 90 4 90 10 0 6 -7 10 -15
10 -23 0 -23 435 0 444 8 3 15 10 15 16 0 6 -35 10 -90 10 -55 0 -90 -4 -90
-10z"/>
<path d="M2263 811 c-35 -32 -63 -61 -63 -65 0 -3 11 -6 25 -6 l25 0 0 -109
c0 -60 5 -122 10 -137 23 -59 79 -70 138 -27 20 15 39 28 41 29 1 2 0 8 -4 14
-5 8 -10 8 -20 0 -16 -13 -43 -3 -55 21 -6 10 -10 61 -10 113 l0 96 45 0 c33
0 45 4 45 15 0 11 -12 15 -46 15 l-47 0 6 50 c8 68 -10 66 -90 -9z"/>
<path d="M503 770 c-12 -5 -30 -24 -39 -42 l-17 -33 -15 35 c-8 19 -15 37 -17
39 -7 7 -105 -31 -105 -41 0 -6 7 -8 15 -4 13 5 15 -14 15 -129 0 -83 -4 -135
-10 -135 -5 0 -10 -4 -10 -10 0 -6 38 -10 95 -10 57 0 95 4 95 10 0 6 -16 10
-35 10 l-35 0 1 83 c1 45 4 96 8 112 6 30 7 30 63 27 l57 -4 11 42 c6 23 10
44 7 46 -9 10 -64 13 -84 4z"/>
<path d="M687 766 c-20 -7 -45 -20 -54 -27 -47 -39 -69 -169 -38 -229 51 -99
208 -105 271 -11 53 81 38 208 -30 250 -44 27 -103 34 -149 17z m54 -62 c49
-25 70 -97 53 -183 -8 -40 -33 -41 -76 -2 -27 24 -32 36 -36 89 -5 67 3 112
19 112 5 0 24 -7 40 -16z"/>
<path d="M1092 740 c-15 -21 -30 -39 -34 -40 -3 0 -9 13 -13 30 -9 41 -18 44
-75 25 -47 -16 -67 -35 -36 -35 20 0 31 -241 10 -256 -25 -20 -15 -24 61 -24
43 0 75 4 75 10 0 6 -4 10 -10 10 -14 0 -13 203 1 217 13 13 58 0 71 -20 12
-18 10 -197 -2 -197 -5 0 -10 -4 -10 -10 0 -6 32 -10 75 -10 43 0 75 4 75 10
0 6 -7 10 -15 10 -12 0 -15 19 -15 115 0 134 -12 168 -65 191 -51 21 -63 18
-93 -26z"/>
<path d="M1993 769 c-39 -9 -43 -14 -58 -60 -19 -55 -15 -70 10 -45 10 9 33
16 55 16 31 0 43 -5 56 -24 8 -14 14 -35 12 -48 -3 -20 -11 -24 -76 -34 -39
-6 -75 -14 -79 -18 -4 -4 -8 -25 -8 -48 0 -70 55 -96 124 -59 34 18 35 18 51
-1 16 -20 16 -20 70 7 51 26 53 28 31 37 -23 8 -23 10 -16 101 4 56 2 102 -4
119 -19 52 -89 75 -168 57z m75 -246 c-3 -33 -7 -38 -28 -38 -19 0 -26 6 -28
23 -5 36 5 52 33 52 24 0 26 -3 23 -37z"/>
<path d="M2578 771 c-49 -10 -67 -26 -94 -86 -53 -112 -9 -232 90 -250 49 -10
112 11 151 51 38 37 46 61 18 49 -10 -4 -35 -12 -56 -18 -51 -13 -100 9 -115
51 -10 29 -10 30 35 36 25 3 70 6 99 6 51 0 54 1 54 25 0 36 -23 86 -51 112
-28 25 -79 34 -131 24z m72 -79 c15 -55 13 -62 -17 -62 -16 0 -39 -3 -52 -7
-23 -6 -24 -5 -17 38 4 24 14 54 22 67 20 31 50 14 64 -36z"/>
</g>
</svg>
